name analog
datacolumns 19
datarows 23
range 0.507 0.518
endheader
time	ground_force_vx	ground_force_vy	ground_force_vz	ground_force_px	ground_force_py	ground_force_pz	l_ground_force_vx	l_ground_force_vy	l_ground_force_vz	l_ground_force_px	l_ground_force_py	l_ground_force_pz	ground_torque_x	ground_torque_y	ground_torque_z	l_ground_torque_x	l_ground_torque_y	l_ground_torque_z
0.507	-0.0	-0.0	-0.0	-0.0	-0.0	-0.0	-7.161129474639893	0.1523066163063049	-763.8226928710938	-0.0	-0.0	-0.0	-0.0	-0.0	-0.0	245351.34375	21183.4375	-1892.3477783203125
0.5075000000000001	-0.0	-0.0	-0.0	-0.0	-0.0	-0.0	-7.306423664093018	0.2506536543369293	-762.90966796875	-0.0	-0.0	-0.0	-0.0	-0.0	-0.0	244752.609375	21525.072265625	-2057.154052734375
0.508	-0.0	-0.0	-0.0	-0.0	-0.0	-0.0	-7.395205020904541	0.4615286290645599	-761.1024169921875	-0.0	-0.0	-0.0	-0.0	-0.0	-0.0	244205.828125	22125.34765625	-1972.2958984375
0.5085000000000001	-0.0	-0.0	-0.0	-0.0	-0.0	-0.0	-7.411154747009277	0.5280362963676453	-758.0567016601562	-0.0	-0.0	-0.0	-0.0	-0.0	-0.0	243783.234375	22423.787109375	-1956.2294921875
0.509	-0.0	-0.0	-0.0	-0.0	-0.0	-0.0	-7.298490524291992	0.8029741048812866	-757.9129028320312	-0.0	-0.0	-0.0	-0.0	-0.0	-0.0	243305.71875	22841.009765625	-1838.7762451171875
0.5095000000000001	-0.0	-0.0	-0.0	-0.0	-0.0	-0.0	-7.314568996429443	1.232452630996704	-755.9210205078125	-0.0	-0.0	-0.0	-0.0	-0.0	-0.0	243078.09375	23196.521484375	-1788.815185546875
0.51	-0.0	-0.0	-0.0	-0.0	-0.0	-0.0	-7.350956916809082	1.553739309310913	-754.5794677734375	-0.0	-0.0	-0.0	-0.0	-0.0	-0.0	242823.75	23582.669921875	-1871.128662109375
0.5105000000000001	-0.0	-0.0	-0.0	-0.0	-0.0	-0.0	-7.344470024108887	2.1818113327026367	-754.9984741210938	-0.0	-0.0	-0.0	-0.0	-0.0	-0.0	242720.59375	24162.2734375	-1900.504150390625
0.511	-0.0	-0.0	-0.0	-0.0	-0.0	-0.0	-7.410891532897949	2.6496505737304688	-754.16748046875	-0.0	-0.0	-0.0	-0.0	-0.0	-0.0	242522.9375	24536.373046875	-1997.728271484375
0.5115000000000001	-0.0	-0.0	-0.0	-0.0	-0.0	-0.0	-7.502903461456299	2.9536731243133545	-753.9356079101562	-0.0	-0.0	-0.0	-0.0	-0.0	-0.0	242309.21875	24842.671875	-1897.3843994140625
0.512	-0.0	-0.0	-0.0	-0.0	-0.0	-0.0	-7.475546360015869	3.174334526062012	-754.2220458984375	-0.0	-0.0	-0.0	-0.0	-0.0	-0.0	242397.5	25145.658203125	-1839.69482421875
0.5125	-0.0	-0.0	-0.0	-0.0	-0.0	-0.0	-7.368907451629639	3.4127023220062256	-754.0545654296875	-0.0	-0.0	-0.0	-0.0	-0.0	-0.0	242616.09375	25353.900390625	-1890.54150390625
0.513	-0.0	-0.0	-0.0	-0.0	-0.0	-0.0	-8.155092239379883	3.9209063053131104	-753.4939575195312	-0.0	-0.0	-0.0	-0.0	-0.0	-0.0	242681.015625	25759.005859375	-1802.638427734375
0.5135	-0.0	-0.0	-0.0	-0.0	-0.0	-0.0	-8.276724815368652	3.647727012634277	-753.4868774414062	-0.0	-0.0	-0.0	-0.0	-0.0	-0.0	242679.859375	25956.7734375	-2033.4840087890625
0.514	-0.0	-0.0	-0.0	-0.0	-0.0	-0.0	-8.569478988647461	3.155912399291992	-754.6915893554688	-0.0	-0.0	-0.0	-0.0	-0.0	-0.0	242508.546875	26220.97265625	-2152.953125
0.5145	-0.0	-0.0	-0.0	-0.0	-0.0	-0.0	-8.915433883666992	2.63345718383789	-753.556396484375	-0.0	-0.0	-0.0	-0.0	-0.0	-0.0	242409.953125	26574.6640625	-2170.2255859375
0.515	-0.0	-0.0	-0.0	-0.0	-0.0	-0.0	-9.006776809692383	2.6210179328918457	-753.2843017578125	-0.0	-0.0	-0.0	-0.0	-0.0	-0.0	242423.25	26878.5859375	-2222.686767578125
0.5155	-0.0	-0.0	-0.0	-0.0	-0.0	-0.0	-9.070677757263184	2.067718505859375	-752.9356079101562	-0.0	-0.0	-0.0	-0.0	-0.0	-0.0	242149.21875	27164.8984375	-2387.98388671875
0.516	-0.0	-0.0	-0.0	-0.0	-0.0	-0.0	-9.436016082763672	2.238185405731201	-751.374267578125	-0.0	-0.0	-0.0	-0.0	-0.0	-0.0	241717.171875	27531.982421875	-2376.163818359375
0.5165	-0.0	-0.0	-0.0	-0.0	-0.0	-0.0	-9.220080375671388	2.234755754470825	-749.6189575195312	-0.0	-0.0	-0.0	-0.0	-0.0	-0.0	241193.046875	27904.095703125	-2401.36083984375
0.517	-0.0	-0.0	-0.0	-0.0	-0.0	-0.0	-9.14161205291748	2.20804214477539	-748.4151611328125	-0.0	-0.0	-0.0	-0.0	-0.0	-0.0	240872.734375	27852.341796875	-2333.831787109375
0.5175	-0.0	-0.0	-0.0	-0.0	-0.0	-0.0	-8.534290313720703	2.338472604751587	-748.3526611328125	-0.0	-0.0	-0.0	-0.0	-0.0	-0.0	240645.203125	27856.525390625	-2128.73779296875
0.518	-0.0	-0.0	-0.0	-0.0	-0.0	-0.0	-7.870107650756836	2.561265468597412	-747.0556640625	-0.0	-0.0	-0.0	-0.0	-0.0	-0.0	240321.828125	27845.5	-1936.3626708984373
